<svg width="24" height="23" viewBox="0 0 24 23" fill="none" xmlns="http://www.w3.org/2000/svg">
<path d="M0 9C0 4.02944 4.02944 0 9 0H15C19.9706 0 24 4.02944 24 9V14C24 18.9706 19.9706 23 15 23H9C4.02944 23 0 18.9706 0 14V9Z" fill="#E5E5E7"/>
<path d="M13.4077 11.224C13.8664 11.2987 14.261 11.4693 14.5917 11.736C14.9224 11.992 15.1784 12.3227 15.3597 12.728C15.541 13.1227 15.6317 13.5707 15.6317 14.072C15.6317 14.7227 15.4717 15.2933 15.1517 15.784C14.8424 16.2853 14.3997 16.6693 13.8237 16.936C13.2477 17.2133 12.5757 17.352 11.8077 17.352C10.997 17.352 10.2824 17.1973 9.66369 16.888C9.05569 16.5893 8.58102 16.1627 8.23969 15.608L9.18369 14.664C9.42902 15.0907 9.75969 15.432 10.1757 15.688C10.6024 15.944 11.1464 16.072 11.8077 16.072C12.5437 16.072 13.1197 15.9013 13.5357 15.56C13.9624 15.2293 14.1757 14.7333 14.1757 14.072C14.1757 13.4 13.9464 12.8667 13.4877 12.472C13.0397 12.0667 12.3837 11.864 11.5197 11.864H11.1037V10.68H11.5517C12.3197 10.68 12.9064 10.4933 13.3117 10.12C13.7277 9.74667 13.9357 9.28267 13.9357 8.728C13.9357 8.344 13.845 8.02933 13.6637 7.784C13.4824 7.53867 13.237 7.35733 12.9277 7.24C12.6184 7.112 12.261 7.048 11.8557 7.048C11.269 7.048 10.7517 7.176 10.3037 7.432C9.86635 7.67733 9.52502 8.024 9.27969 8.472L8.41569 7.576C8.60769 7.21333 8.87969 6.89867 9.23169 6.632C9.59435 6.36533 10.0104 6.15733 10.4797 6.008C10.9597 5.85867 11.4664 5.784 11.9997 5.784C12.6717 5.784 13.2637 5.90133 13.7757 6.136C14.2984 6.37067 14.7037 6.70133 14.9917 7.128C15.2797 7.55467 15.4237 8.056 15.4237 8.632C15.4237 9.048 15.3437 9.44267 15.1837 9.816C15.0237 10.1787 14.789 10.488 14.4797 10.744C14.181 10.9893 13.8237 11.1493 13.4077 11.224Z" fill="#9C9C9C"/>
</svg>
