<svg width="24" height="23" viewBox="0 0 24 23" fill="none" xmlns="http://www.w3.org/2000/svg">
<path d="M0 9C0 4.02944 4.02944 0 9 0H15C19.9706 0 24 4.02944 24 9V14C24 18.9706 19.9706 23 15 23H9C4.02944 23 0 18.9706 0 14V9Z" fill="#CB2B28"/>
<path d="M15.2144 15.4237V16.7037H9.47044V15.4237H11.7424V9.1837C11.6464 9.3117 11.4971 9.45037 11.2944 9.5997C11.0918 9.73837 10.8624 9.8717 10.6064 9.9997C10.3504 10.1277 10.0944 10.2344 9.83844 10.3197C9.58244 10.3944 9.34777 10.4317 9.13444 10.4317V9.0877C9.3691 9.0877 9.6251 9.0237 9.90244 8.8957C10.1904 8.75704 10.4678 8.59704 10.7344 8.4157C11.0011 8.23437 11.2251 8.0637 11.4064 7.9037C11.5984 7.7437 11.7104 7.6317 11.7424 7.5677H13.1824V15.4237H15.2144Z" fill="white"/>
</svg>
