<svg width="24" height="23" viewBox="0 0 24 23" fill="none" xmlns="http://www.w3.org/2000/svg">
<path d="M0 9C0 4.02944 4.02944 0 9 0H15C19.9706 0 24 4.02944 24 9V14C24 18.9706 19.9706 23 15 23H9C4.02944 23 0 18.9706 0 14V9Z" fill="#E5E5E7"/>
<path d="M8.40675 16.7037C8.40675 16.277 8.43875 15.877 8.50275 15.5037C8.57742 15.1304 8.70542 14.773 8.88675 14.4317C9.07875 14.0904 9.34542 13.765 9.68675 13.4557C10.0281 13.1357 10.4708 12.8264 11.0148 12.5277C11.3348 12.3464 11.6548 12.1757 11.9748 12.0157C12.3054 11.8557 12.6094 11.685 12.8868 11.5037C13.1748 11.3224 13.4041 11.125 13.5748 10.9117C13.7454 10.6877 13.8308 10.4317 13.8308 10.1437C13.8308 9.89837 13.7561 9.6637 13.6068 9.4397C13.4681 9.20504 13.2548 9.01837 12.9668 8.8797C12.6894 8.73037 12.3428 8.6557 11.9268 8.6557C11.6068 8.6557 11.3134 8.69837 11.0468 8.7837C10.7908 8.86904 10.5561 8.98104 10.3428 9.1197C10.1401 9.2477 9.95875 9.38637 9.79875 9.5357C9.64942 9.67437 9.52142 9.80237 9.41475 9.9197L8.53475 8.9277C8.62008 8.8317 8.76408 8.7037 8.96675 8.5437C9.16942 8.37304 9.42542 8.20237 9.73475 8.0317C10.0441 7.86104 10.4014 7.71704 10.8068 7.5997C11.2228 7.4717 11.6761 7.4077 12.1668 7.4077C12.8281 7.4077 13.3934 7.52504 13.8628 7.7597C14.3428 7.9837 14.7108 8.29304 14.9668 8.6877C15.2228 9.0717 15.3508 9.5037 15.3508 9.9837C15.3508 10.3997 15.2601 10.7624 15.0788 11.0717C14.9081 11.381 14.6841 11.653 14.4068 11.8877C14.1401 12.1224 13.8574 12.325 13.5588 12.4957C13.2708 12.6557 13.0094 12.7944 12.7748 12.9117C12.2948 13.1464 11.8841 13.3597 11.5428 13.5517C11.2014 13.7437 10.9188 13.9357 10.6948 14.1277C10.4814 14.309 10.3054 14.501 10.1668 14.7037C10.0388 14.9064 9.94275 15.1464 9.87875 15.4237H15.5268V16.7037H8.40675Z" fill="#9C9C9C"/>
</svg>
